<svg width="23" height="23" viewBox="0 0 23 23" fill="none" xmlns="http://www.w3.org/2000/svg">
<g clip-path="url(#clip0_1163_137)">
<path d="M1.07812 5.39062C1.07812 3.01875 3.01875 1.07812 5.39062 1.07812H17.6094C19.9813 1.07812 21.9219 3.01875 21.9219 5.39062V17.6094C21.9219 19.9813 19.9813 21.9219 17.6094 21.9219H5.39062C3.01875 21.9219 1.07812 19.9813 1.07812 17.6094V5.39062Z" fill="#CCE490"/>
<path d="M7.90625 0C5.71406 0 4.27656 0.0359375 3.12656 0.610938C2.04844 1.15 1.15 2.04844 0.610938 3.12656C0.2875 3.77344 0.14375 4.49219 0.071875 5.39062C0 6.28906 0 7.36719 0 8.73281V14.2672C0 15.6328 0 16.7469 0.071875 17.6094C0.14375 18.5078 0.2875 19.2266 0.610938 19.8734C1.15 20.9516 2.04844 21.85 3.12656 22.3891C3.77344 22.7125 4.49219 22.8562 5.39062 22.9281C6.25313 23 7.33125 23 8.73281 23H14.2312C15.1297 23 15.9203 23 16.5672 22.9641V21.9219H19.4062L21.9219 19.4062V7.1875H21.5625C21.5625 11.5719 18.7953 15.3813 14.7344 17.3219C13.4766 18.1484 11.2125 18.6875 8.625 18.6875C4.74375 18.6875 1.61719 17.4656 1.4375 15.9203C1.4375 15.4172 1.4375 14.8781 1.4375 14.2312V8.76875C1.4375 7.33125 1.4375 6.325 1.50937 5.53437C1.58125 4.74375 1.68906 4.24063 1.90469 3.80938C2.33594 2.98281 2.98281 2.33594 3.77344 1.94063C4.56406 1.50937 5.60625 1.4375 7.90625 1.4375V0Z" fill="#00D631"/>
<path d="M12.5779 10.4219C14.3748 11.1406 15.8123 11.6797 15.8123 13.6562C15.8123 15.4891 13.9795 16.9984 11.4279 17.2141L11.2482 18.1125C11.1764 18.4359 10.8889 18.6875 10.5295 18.6875H9.09199C8.84043 18.6875 8.58887 18.4719 8.58887 18.1844C8.58887 18.1484 8.58887 18.1125 8.58887 18.0766L8.87637 16.8547C7.83418 16.4594 6.93574 15.8125 6.46855 15.3094C6.36074 15.1656 6.36074 14.9859 6.46855 14.8422L7.4748 13.8359C7.58262 13.7281 7.79824 13.6922 7.94199 13.8C8.51699 14.1953 9.99043 15.0578 11.1045 15.0578C11.6436 15.0578 12.9014 14.8781 12.9014 13.8C12.9014 12.1828 7.51074 12.3625 7.51074 9.12812C7.51074 7.15156 9.05605 5.92969 11.5357 5.75L11.7514 4.85156C11.8232 4.52813 12.1107 4.3125 12.4342 4.3125H13.8357C14.0873 4.3125 14.3389 4.52812 14.3389 4.81562C14.3389 4.85156 14.3389 4.8875 14.3389 4.92344L14.0873 6.07344C15.2014 6.43281 16.0279 7.04375 16.4592 7.51094C16.6029 7.65469 16.567 7.83438 16.4592 7.97813L15.4889 8.94844C15.3451 9.09219 15.1295 9.09219 14.9857 8.98438C14.4107 8.51719 13.3326 7.90625 12.2186 7.90625C10.7811 7.90625 10.4217 8.26562 10.4217 8.80469C10.4217 9.34375 10.9248 9.775 12.5779 10.4219Z" fill="white"/>
<path fill-rule="evenodd" clip-rule="evenodd" d="M17.4656 1.50937C16.675 1.4375 15.6687 1.4375 14.2312 1.4375H8.76875C8.19375 1.4375 7.65469 1.4375 7.1875 1.4375V0C7.65469 0 8.19375 0 8.76875 0H14.2672C15.6328 0 16.7469 0 17.6094 0.071875C18.5078 0.14375 19.2266 0.2875 19.8734 0.610938C20.9516 1.15 21.85 2.04844 22.3891 3.12656C22.7125 3.77344 22.8562 4.49219 22.9281 5.39062C23 6.25313 23 7.33125 23 8.73281V14.2672C23 15.6328 23 16.7469 22.9281 17.6094C22.8562 18.5078 22.7125 19.2266 22.3891 19.8734C21.85 20.9516 20.9516 21.85 19.8734 22.3891C18.8312 22.8922 17.6094 22.9641 15.8125 23V21.5625C17.6453 21.5266 18.5437 21.4547 19.2266 21.0953C20.0531 20.6641 20.7 20.0172 21.0953 19.2266C21.3109 18.7953 21.4187 18.2922 21.4906 17.5016C21.5625 16.7109 21.5625 15.6688 21.5625 14.2672V8.76875C21.5625 7.33125 21.5625 6.325 21.4906 5.53437C21.4187 4.74375 21.3109 4.24063 21.0953 3.80938C20.6641 2.98281 20.0172 2.33594 19.2266 1.94063C18.7953 1.68906 18.2562 1.58125 17.4656 1.50937Z" fill="#314A52"/>
</g>
<defs>
<clipPath id="clip0_1163_137">
<rect width="23" height="23" fill="white"/>
</clipPath>
</defs>
</svg>
