<svg id="svg" version="1.1" xmlns="http://www.w3.org/2000/svg" xmlns:xlink="http://www.w3.org/1999/xlink" width="400" height="268.7022900763359" viewBox="0, 0, 400,268.7022900763359"><g id="svgg"><path id="path0" d="M128.360 0.174 C 110.035 4.340,107.348 28.152,124.395 35.320 C 127.224 36.510,128.158 36.559,147.697 36.554 C 168.225 36.549,168.236 36.549,171.802 34.851 C 186.674 27.770,185.243 6.667,169.495 0.841 L 167.608 0.142 148.253 0.097 C 137.608 0.073,128.656 0.107,128.360 0.174 M202.212 0.542 C 185.793 4.844,183.326 27.208,198.452 34.640 C 202.535 36.646,200.819 36.559,236.297 36.559 C 271.835 36.559,270.021 36.648,273.850 34.715 C 289.004 27.065,286.461 4.741,269.955 0.519 C 266.824 -0.282,205.276 -0.261,202.212 0.542 M305.376 0.186 C 285.924 3.438,285.069 32.028,304.301 36.173 C 306.805 36.713,372.124 36.725,374.633 36.186 C 393.405 32.157,393.162 4.397,374.320 0.406 C 372.545 0.030,307.550 -0.178,305.376 0.186 M30.221 0.926 C 11.131 5.862,11.987 32.781,31.359 36.689 C 33.220 37.065,36.874 37.105,62.500 37.034 L 91.532 36.954 93.546 36.334 C 112.097 30.627,110.878 4.657,91.872 0.659 C 90.317 0.332,85.404 0.271,61.340 0.282 L 32.661 0.295 30.221 0.926 M24.770 62.384 C 21.614 63.649,21.505 64.077,21.505 75.267 C 21.505 85.701,21.521 85.809,23.205 87.288 C 24.889 88.766,22.469 88.707,80.645 88.706 L 135.081 88.704 136.475 88.055 C 137.440 87.606,138.101 87.055,138.625 86.263 L 139.382 85.120 139.382 75.379 L 139.382 65.638 138.572 64.472 C 138.098 63.791,137.265 63.055,136.566 62.702 L 135.370 62.097 80.387 62.114 C 46.609 62.124,25.159 62.229,24.770 62.384 M18.899 107.413 C 17.038 109.388,17.168 106.449,17.259 144.641 L 17.339 178.127 18.867 179.655 L 20.395 181.183 199.969 181.183 L 379.542 181.183 380.295 180.517 C 380.709 180.150,381.151 179.739,381.277 179.603 C 381.403 179.466,381.765 179.071,382.083 178.723 L 382.661 178.091 382.739 144.355 C 382.826 106.155,382.972 109.382,381.074 107.407 L 379.639 105.914 199.967 105.923 L 20.296 105.931 18.899 107.413 M81.660 114.552 C 82.314 114.868,83.194 115.609,83.626 116.205 L 84.409 117.285 84.409 143.548 L 84.409 169.812 83.628 170.890 C 83.198 171.482,82.425 172.228,81.910 172.547 L 80.973 173.126 53.726 173.055 L 26.478 172.984 25.579 172.312 C 25.084 171.942,24.388 171.145,24.033 170.541 L 23.387 169.442 23.395 143.525 L 23.404 117.608 24.017 116.611 C 24.680 115.532,25.654 114.666,26.654 114.265 C 27.032 114.114,37.947 114.006,53.880 113.996 L 80.475 113.978 81.660 114.552 M183.973 118.870 C 187.234 121.008,187.234 129.530,183.973 131.667 L 183.072 132.258 146.572 132.258 L 110.071 132.258 109.095 131.595 C 107.232 130.329,106.989 129.601,106.989 125.269 C 106.989 120.937,107.232 120.209,109.095 118.943 L 110.071 118.280 146.572 118.280 L 183.072 118.280 183.973 118.870 M213.011 120.952 C 219.609 124.728,217.143 134.409,209.583 134.409 C 202.097 134.409,199.859 124.736,206.452 120.875 C 208.261 119.815,211.082 119.849,213.011 120.952 M148.432 138.297 C 150.778 139.892,151.573 146.070,149.755 148.580 C 148.072 150.904,148.992 150.806,128.763 150.806 C 108.535 150.806,109.455 150.904,107.772 148.580 C 105.954 146.070,106.749 139.892,109.095 138.297 L 110.071 137.634 128.763 137.634 L 147.456 137.634 148.432 138.297 M18.817 195.094 L 17.339 196.608 17.259 230.092 C 17.167 268.349,17.033 265.354,18.932 267.330 L 20.361 268.817 200.000 268.817 L 379.639 268.817 381.084 267.313 C 382.986 265.334,382.820 269.005,382.736 230.645 L 382.661 196.640 382.083 196.008 C 381.765 195.661,381.403 195.265,381.277 195.128 C 381.151 194.992,380.709 194.581,380.295 194.214 L 379.542 193.548 199.919 193.564 L 20.296 193.579 18.817 195.094 M82.270 202.294 C 82.777 202.668,83.462 203.303,83.791 203.705 L 84.389 204.435 84.399 231.032 L 84.409 257.628 83.835 258.451 C 83.520 258.904,82.890 259.577,82.435 259.946 L 81.608 260.618 54.312 260.689 C 23.481 260.768,26.048 260.945,24.261 258.621 L 23.387 257.485 23.387 231.202 L 23.387 204.919 24.202 203.795 C 25.927 201.413,23.167 201.615,54.047 201.614 L 81.347 201.613 82.270 202.294 M198.309 206.426 C 200.378 207.924,200.589 208.571,200.490 213.108 C 200.394 217.491,200.277 217.826,198.331 219.262 L 197.476 219.892 153.595 219.892 L 109.713 219.892 108.351 218.566 L 106.989 217.239 106.989 212.819 L 106.989 208.398 108.077 207.277 C 108.676 206.661,109.432 206.049,109.757 205.918 C 110.093 205.783,129.189 205.672,153.790 205.662 L 197.231 205.645 198.309 206.426 M227.925 208.376 C 230.997 210.210,231.990 211.926,231.988 215.403 L 231.987 218.145 230.973 219.483 C 230.416 220.219,229.358 221.276,228.623 221.834 L 227.285 222.847 224.517 222.848 C 221.812 222.849,221.714 222.828,220.281 221.911 C 215.288 218.717,215.607 211.687,220.891 208.438 C 222.347 207.543,226.468 207.507,227.925 208.376 M155.614 225.815 C 157.528 227.201,157.794 227.893,157.795 231.501 C 157.796 235.176,157.668 235.607,156.145 237.071 L 154.999 238.172 132.289 238.172 L 109.579 238.172 108.284 236.829 L 106.989 235.486 106.989 231.619 L 106.989 227.753 108.077 226.632 C 109.690 224.970,108.707 225.035,132.419 225.017 L 154.489 225.000 155.614 225.815 " stroke="none" fill="#ffffff" fill-rule="evenodd"></path></g></svg>