<svg id="svg" version="1.1" xmlns="http://www.w3.org/2000/svg" xmlns:xlink="http://www.w3.org/1999/xlink" width="400" height="240.20356234096693" viewBox="0, 0, 400,240.20356234096693"><g id="svgg"><path id="path0" d="M12.973 0.309 C 12.973 0.478,12.649 0.809,12.252 1.043 C 11.856 1.277,11.532 1.555,11.532 1.660 C 11.532 1.766,11.234 2.165,10.871 2.548 L 10.210 3.243 10.210 15.324 C 10.210 23.150,10.295 27.465,10.452 27.576 C 10.585 27.671,10.990 28.146,11.353 28.632 C 11.715 29.119,12.228 29.586,12.492 29.670 C 12.757 29.754,12.973 29.977,12.973 30.166 C 12.973 30.718,83.246 30.682,83.458 30.131 C 83.648 29.636,83.642 1.249,83.452 0.541 L 83.307 0.000 48.140 0.000 C 19.664 0.000,12.973 0.059,12.973 0.309 M89.610 15.255 L 89.610 30.511 175.736 30.511 C 247.273 30.511,261.862 30.456,261.862 30.191 C 261.862 30.015,262.141 29.721,262.483 29.539 C 262.824 29.356,263.333 28.878,263.612 28.477 C 263.892 28.076,264.234 27.671,264.373 27.576 C 264.543 27.461,264.625 23.479,264.625 15.324 L 264.625 3.243 263.964 2.548 C 263.601 2.165,263.303 1.766,263.303 1.660 C 263.303 1.555,262.979 1.277,262.583 1.043 C 262.186 0.809,261.862 0.478,261.862 0.309 C 261.862 0.058,245.706 0.000,175.736 0.000 L 89.610 0.000 89.610 15.255 M315.056 14.550 C 311.081 15.633,308.153 18.916,307.531 22.989 C 307.354 24.146,307.267 31.746,307.267 45.992 L 307.267 67.267 153.634 67.267 L 0.000 67.267 0.000 136.594 C 0.000 196.625,0.046 205.967,0.346 206.266 C 0.536 206.457,0.761 207.125,0.844 207.751 C 1.024 209.092,1.995 212.471,2.690 214.174 C 3.440 216.010,4.088 217.489,4.362 217.991 C 5.324 219.751,5.748 220.449,7.148 222.583 C 9.961 226.866,16.341 232.727,20.737 235.064 C 21.299 235.363,21.972 235.727,22.231 235.873 C 24.647 237.229,30.105 239.077,32.754 239.434 C 33.393 239.520,33.972 239.737,34.041 239.915 C 34.228 240.403,365.773 240.401,365.960 239.914 C 366.031 239.728,366.637 239.516,367.367 239.422 C 370.099 239.071,375.694 237.084,378.619 235.426 C 384.335 232.186,389.863 227.174,393.053 222.338 C 394.577 220.028,394.854 219.549,396.037 217.177 C 396.786 215.675,398.078 212.404,398.078 212.009 C 398.078 211.830,398.204 211.379,398.357 211.007 C 398.511 210.635,398.831 209.413,399.069 208.291 C 399.307 207.170,399.614 206.215,399.751 206.169 C 399.922 206.112,400.000 184.377,400.000 136.677 L 400.000 67.267 394.359 67.267 L 388.718 67.267 388.653 44.505 L 388.589 21.742 387.821 20.122 C 386.517 17.369,384.007 15.308,381.012 14.532 C 379.022 14.016,316.954 14.033,315.056 14.550 M388.709 87.045 L 388.709 106.823 388.136 108.508 C 386.809 112.408,384.181 115.057,380.289 116.416 L 378.608 117.004 346.841 116.940 L 315.075 116.877 313.393 116.054 C 311.481 115.119,309.282 113.052,308.624 111.574 C 308.394 111.055,308.075 110.414,307.916 110.150 C 307.699 109.788,307.612 104.448,307.563 88.468 L 307.497 67.267 348.103 67.267 L 388.709 67.267 388.709 87.045 M207.521 120.836 C 207.958 121.164,208.607 121.812,208.963 122.277 L 209.610 123.123 209.610 127.814 C 209.610 133.067,209.599 133.102,207.632 134.595 L 206.761 135.255 112.488 135.255 L 18.215 135.255 17.313 134.607 C 15.465 133.278,15.375 132.962,15.375 127.738 C 15.375 122.514,15.884 121.200,18.258 120.294 C 18.456 120.219,60.943 120.176,112.673 120.199 L 206.727 120.240 207.521 120.836 M92.564 144.324 C 93.047 144.688,93.715 145.357,94.049 145.812 L 94.655 146.640 94.655 157.248 L 94.655 167.856 93.936 168.848 C 93.540 169.394,92.804 170.114,92.299 170.448 L 91.381 171.056 56.321 170.993 L 21.261 170.931 20.467 170.335 C 20.030 170.007,19.381 169.359,19.025 168.894 L 18.378 168.048 18.378 157.357 L 18.378 146.667 18.949 145.826 C 19.263 145.363,19.902 144.688,20.369 144.324 L 21.219 143.664 56.452 143.664 L 91.686 143.664 92.564 144.324 M362.643 147.305 C 388.959 152.521,398.866 184.898,379.944 203.852 C 363.672 220.153,336.270 215.530,326.160 194.777 C 314.113 170.049,335.695 141.965,362.643 147.305 M207.572 151.398 C 209.566 152.923,209.610 153.072,209.610 158.318 C 209.610 163.565,209.566 163.714,207.572 165.239 L 206.727 165.886 158.318 165.956 C 107.702 166.030,108.808 166.052,107.628 164.969 C 105.977 163.454,105.946 163.333,105.946 158.325 C 105.946 153.092,106.031 152.815,108.086 151.385 L 109.175 150.627 157.951 150.689 L 206.727 150.751 207.572 151.398 M43.434 188.631 L 44.685 189.875 44.685 198.566 L 44.685 207.258 43.378 208.494 L 42.071 209.730 33.564 209.730 L 25.058 209.730 23.700 208.306 L 22.342 206.883 22.344 198.636 C 22.346 189.405,22.261 189.888,24.169 188.191 L 25.072 187.387 33.628 187.387 L 42.184 187.387 43.434 188.631 M281.902 188.092 C 283.952 189.722,283.835 189.126,283.913 198.324 L 283.982 206.510 283.254 207.515 C 282.854 208.067,282.114 208.792,281.610 209.125 L 280.695 209.731 168.275 209.670 L 55.856 209.610 55.010 208.963 C 54.545 208.607,53.896 207.958,53.569 207.521 L 52.973 206.727 52.899 199.159 C 52.809 190.022,52.767 190.307,54.443 188.670 L 55.757 187.387 168.386 187.387 L 281.015 187.387 281.902 188.092 " stroke="none" fill="#ffffff" fill-rule="evenodd"></path></g></svg>