<svg id="svg" xmlns="http://www.w3.org/2000/svg" xmlns:xlink="http://www.w3.org/1999/xlink" width="400" height="240.20356234096693" viewBox="0, 0, 400,240.20356234096693" version="1.1"><g id="svgg"><path id="path0" d="M12.973 0.309 C 12.973 0.478,12.649 0.809,12.252 1.043 C 11.856 1.277,11.532 1.555,11.532 1.660 C 11.532 1.766,11.234 2.165,10.871 2.548 L 10.210 3.243 10.210 15.324 C 10.210 23.150,10.295 27.465,10.452 27.576 C 10.585 27.671,10.990 28.146,11.353 28.632 C 11.715 29.119,12.228 29.586,12.492 29.670 C 12.757 29.754,12.973 29.977,12.973 30.166 C 12.973 30.718,83.246 30.682,83.458 30.131 C 83.648 29.636,83.642 1.249,83.452 0.541 L 83.307 0.000 48.140 0.000 C 19.664 0.000,12.973 0.059,12.973 0.309 M89.610 15.255 L 89.610 30.511 175.736 30.511 C 247.273 30.511,261.862 30.456,261.862 30.191 C 261.862 30.015,262.141 29.721,262.483 29.539 C 262.824 29.356,263.333 28.878,263.612 28.477 C 263.892 28.076,264.234 27.671,264.373 27.576 C 264.543 27.461,264.625 23.479,264.625 15.324 L 264.625 3.243 263.964 2.548 C 263.601 2.165,263.303 1.766,263.303 1.660 C 263.303 1.555,262.979 1.277,262.583 1.043 C 262.186 0.809,261.862 0.478,261.862 0.309 C 261.862 0.058,245.706 0.000,175.736 0.000 L 89.610 0.000 89.610 15.255 M315.056 14.550 C 311.081 15.633,308.153 18.916,307.531 22.989 C 307.354 24.146,307.267 31.746,307.267 45.992 L 307.267 67.267 153.634 67.267 L 0.000 67.267 0.000 136.594 C 0.000 196.625,0.046 205.967,0.346 206.266 C 0.536 206.457,0.761 207.125,0.844 207.751 C 1.024 209.092,1.995 212.471,2.690 214.174 C 3.440 216.010,4.088 217.489,4.362 217.991 C 5.324 219.751,5.748 220.449,7.148 222.583 C 9.961 226.866,16.341 232.727,20.737 235.064 C 21.299 235.363,21.972 235.727,22.231 235.873 C 24.647 237.229,30.105 239.077,32.754 239.434 C 33.393 239.520,33.972 239.737,34.041 239.915 C 34.228 240.403,365.773 240.401,365.960 239.914 C 366.031 239.728,366.637 239.516,367.367 239.422 C 370.099 239.071,375.694 237.084,378.619 235.426 C 384.335 232.186,389.863 227.174,393.053 222.338 C 394.577 220.028,394.854 219.549,396.037 217.177 C 396.786 215.675,398.078 212.404,398.078 212.009 C 398.078 211.830,398.204 211.379,398.357 211.007 C 398.511 210.635,398.831 209.413,399.069 208.291 C 399.307 207.170,399.614 206.215,399.751 206.169 C 399.922 206.112,400.000 184.377,400.000 136.677 L 400.000 67.267 394.359 67.267 L 388.718 67.267 388.653 44.505 L 388.589 21.742 387.821 20.122 C 386.517 17.369,384.007 15.308,381.012 14.532 C 379.022 14.016,316.954 14.033,315.056 14.550 M388.709 87.045 L 388.709 106.823 388.136 108.508 C 386.809 112.408,384.181 115.057,380.289 116.416 L 378.608 117.004 346.841 116.940 L 315.075 116.877 313.393 116.054 C 311.481 115.119,309.282 113.052,308.624 111.574 C 308.394 111.055,308.075 110.414,307.916 110.150 C 307.699 109.788,307.612 104.448,307.563 88.468 L 307.497 67.267 348.103 67.267 L 388.709 67.267 388.709 87.045 M207.521 120.836 C 207.958 121.164,208.607 121.812,208.963 122.277 L 209.610 123.123 209.610 127.814 C 209.610 133.067,209.599 133.102,207.632 134.595 L 206.761 135.255 112.488 135.255 L 18.215 135.255 17.313 134.607 C 15.465 133.278,15.375 132.962,15.375 127.738 C 15.375 122.514,15.884 121.200,18.258 120.294 C 18.456 120.219,60.943 120.176,112.673 120.199 L 206.727 120.240 207.521 120.836 M92.564 144.324 C 93.047 144.688,93.715 145.357,94.049 145.812 L 94.655 146.640 94.655 157.248 L 94.655 167.856 93.936 168.848 C 93.540 169.394,92.804 170.114,92.299 170.448 L 91.381 171.056 56.321 170.993 L 21.261 170.931 20.467 170.335 C 20.030 170.007,19.381 169.359,19.025 168.894 L 18.378 168.048 18.378 157.357 L 18.378 146.667 18.949 145.826 C 19.263 145.363,19.902 144.688,20.369 144.324 L 21.219 143.664 56.452 143.664 L 91.686 143.664 92.564 144.324 M362.643 147.305 C 388.959 152.521,398.866 184.898,379.944 203.852 C 363.672 220.153,336.270 215.530,326.160 194.777 C 314.113 170.049,335.695 141.965,362.643 147.305 M207.572 151.398 C 209.566 152.923,209.610 153.072,209.610 158.318 C 209.610 163.565,209.566 163.714,207.572 165.239 L 206.727 165.886 158.318 165.956 C 107.702 166.030,108.808 166.052,107.628 164.969 C 105.977 163.454,105.946 163.333,105.946 158.325 C 105.946 153.092,106.031 152.815,108.086 151.385 L 109.175 150.627 157.951 150.689 L 206.727 150.751 207.572 151.398 M43.434 188.631 L 44.685 189.875 44.685 198.566 L 44.685 207.258 43.378 208.494 L 42.071 209.730 33.564 209.730 L 25.058 209.730 23.700 208.306 L 22.342 206.883 22.344 198.636 C 22.346 189.405,22.261 189.888,24.169 188.191 L 25.072 187.387 33.628 187.387 L 42.184 187.387 43.434 188.631 M281.902 188.092 C 283.952 189.722,283.835 189.126,283.913 198.324 L 283.982 206.510 283.254 207.515 C 282.854 208.067,282.114 208.792,281.610 209.125 L 280.695 209.731 168.275 209.670 L 55.856 209.610 55.010 208.963 C 54.545 208.607,53.896 207.958,53.569 207.521 L 52.973 206.727 52.899 199.159 C 52.809 190.022,52.767 190.307,54.443 188.670 L 55.757 187.387 168.386 187.387 L 281.015 187.387 281.902 188.092 " stroke="none" fill="#ffffff" fill-rule="evenodd"></path><path id="path1" d="M0.000 33.634 L 0.000 67.267 153.634 67.267 L 307.267 67.267 307.267 45.992 C 307.267 31.746,307.354 24.146,307.531 22.989 C 308.165 18.841,311.112 15.593,315.204 14.532 C 317.283 13.994,378.933 13.994,381.012 14.532 C 384.007 15.308,386.517 17.369,387.821 20.122 L 388.589 21.742 388.653 44.505 L 388.718 67.267 348.108 67.267 L 307.497 67.267 307.563 88.468 C 307.612 104.448,307.699 109.788,307.916 110.150 C 308.075 110.414,308.394 111.055,308.624 111.574 C 309.282 113.052,311.481 115.119,313.393 116.054 L 315.075 116.877 346.841 116.940 L 378.608 117.004 380.254 116.429 C 384.168 115.061,386.805 112.419,388.124 108.542 L 388.709 106.823 388.709 87.045 L 388.709 67.267 394.354 67.267 L 400.000 67.267 400.000 33.634 L 400.000 0.000 330.931 0.000 C 257.863 0.000,260.743 -0.044,262.583 1.043 C 262.979 1.277,263.303 1.555,263.303 1.660 C 263.303 1.766,263.601 2.165,263.964 2.548 L 264.625 3.243 264.625 15.324 C 264.625 23.479,264.543 27.461,264.373 27.576 C 264.234 27.671,263.892 28.076,263.612 28.477 C 263.333 28.878,262.824 29.356,262.483 29.539 C 262.141 29.721,261.862 30.015,261.862 30.191 C 261.862 30.456,247.273 30.511,175.736 30.511 L 89.610 30.511 89.610 15.255 L 89.610 0.000 86.547 -0.000 L 83.483 -0.000 83.553 14.715 C 83.591 22.808,83.561 29.673,83.488 29.970 L 83.354 30.511 48.164 30.511 C 17.779 30.511,12.973 30.464,12.973 30.166 C 12.973 29.977,12.757 29.754,12.492 29.670 C 12.228 29.586,11.715 29.119,11.353 28.632 C 10.990 28.146,10.585 27.671,10.452 27.576 C 10.295 27.465,10.210 23.150,10.210 15.324 L 10.210 3.243 10.871 2.548 C 11.234 2.165,11.532 1.766,11.532 1.660 C 11.532 1.555,11.856 1.277,12.252 1.043 C 13.862 0.092,13.353 0.000,6.486 0.000 L 0.000 0.000 0.000 33.634 M18.258 120.294 C 15.884 121.200,15.375 122.514,15.375 127.738 C 15.375 132.962,15.465 133.278,17.313 134.607 L 18.215 135.255 112.488 135.255 L 206.761 135.255 207.632 134.595 C 209.599 133.102,209.610 133.067,209.610 127.814 L 209.610 123.123 208.963 122.277 C 208.607 121.812,207.958 121.164,207.521 120.836 L 206.727 120.240 112.673 120.199 C 60.943 120.176,18.456 120.219,18.258 120.294 M20.369 144.324 C 19.902 144.688,19.263 145.363,18.949 145.826 L 18.378 146.667 18.378 157.357 L 18.378 168.048 19.025 168.894 C 19.381 169.359,20.030 170.007,20.467 170.335 L 21.261 170.931 56.321 170.993 L 91.381 171.056 92.299 170.448 C 92.804 170.114,93.540 169.394,93.936 168.848 L 94.655 167.856 94.655 157.248 L 94.655 146.640 94.049 145.812 C 93.715 145.357,93.047 144.688,92.564 144.324 L 91.686 143.664 56.452 143.664 L 21.219 143.664 20.369 144.324 M353.033 146.773 C 329.762 149.199,315.964 173.848,326.160 194.777 C 339.289 221.726,378.483 219.165,388.067 190.732 C 395.714 168.042,376.790 144.295,353.033 146.773 M108.086 151.385 C 106.031 152.815,105.946 153.092,105.946 158.325 C 105.946 163.333,105.977 163.454,107.628 164.969 C 108.808 166.052,107.702 166.030,158.318 165.956 L 206.727 165.886 207.572 165.239 C 209.566 163.714,209.610 163.565,209.610 158.318 C 209.610 153.072,209.566 152.923,207.572 151.398 L 206.727 150.751 157.951 150.689 L 109.175 150.627 108.086 151.385 M24.169 188.191 C 22.261 189.888,22.346 189.405,22.344 198.636 L 22.342 206.883 23.700 208.306 L 25.058 209.730 33.564 209.730 L 42.071 209.730 43.378 208.494 L 44.685 207.258 44.685 198.566 L 44.685 189.875 43.434 188.631 L 42.184 187.387 33.628 187.387 L 25.072 187.387 24.169 188.191 M54.443 188.670 C 52.767 190.307,52.809 190.022,52.899 199.159 L 52.973 206.727 53.569 207.521 C 53.896 207.958,54.545 208.607,55.010 208.963 L 55.856 209.610 168.275 209.670 L 280.695 209.731 281.610 209.125 C 282.114 208.792,282.854 208.067,283.254 207.515 L 283.982 206.510 283.913 198.324 C 283.835 189.126,283.952 189.722,281.902 188.092 L 281.015 187.387 168.386 187.387 L 55.757 187.387 54.443 188.670 M0.000 223.183 L 0.000 240.240 17.077 240.240 C 35.094 240.240,36.203 240.166,31.940 239.249 C 28.053 238.413,24.817 237.285,22.231 235.867 C 21.972 235.724,21.299 235.363,20.737 235.064 C 16.341 232.727,9.961 226.866,7.148 222.583 C 5.748 220.449,5.324 219.751,4.362 217.991 C 4.088 217.489,3.440 216.010,2.690 214.174 C 2.022 212.538,0.959 208.998,0.959 208.408 C 0.958 207.631,0.477 206.126,0.229 206.126 C 0.086 206.126,0.000 212.533,0.000 223.183 M399.178 207.795 C 398.970 208.713,398.799 209.620,398.799 209.810 C 398.799 210.000,398.637 210.465,398.440 210.843 C 398.243 211.222,398.080 211.713,398.080 211.934 C 398.078 212.392,396.844 215.558,396.037 217.177 C 394.854 219.549,394.577 220.028,393.053 222.338 C 389.863 227.174,384.335 232.186,378.619 235.426 C 375.728 237.065,370.773 238.841,367.587 239.382 C 366.739 239.526,366.000 239.778,365.945 239.942 C 365.867 240.178,369.438 240.240,382.923 240.240 L 400.000 240.240 400.000 223.183 C 400.000 212.963,399.911 206.126,399.779 206.126 C 399.657 206.126,399.387 206.877,399.178 207.795 " stroke="none" fill="#f0eefc" fill-rule="evenodd"></path></g></svg>