<svg width="78" height="78" viewBox="0 0 78 78" fill="none" xmlns="http://www.w3.org/2000/svg">
<g clip-path="url(#clip0_1070_38430)">
<path d="M39 0.316132C23.909 0.316132 11.6318 12.5936 11.6318 27.6843C11.6318 33.9114 13.6727 39.7761 17.5337 44.6442C22.4578 50.8528 36.749 65.5652 37.3551 66.1885L38.9997 67.8804L40.6446 66.1887C41.251 65.5652 55.5467 50.8493 60.4713 44.6389C64.3289 39.7745 66.3679 33.9117 66.3679 27.6843C66.3681 12.5936 54.0909 0.316132 39 0.316132ZM56.8764 41.7883C53.0572 46.6048 42.9761 57.1595 39 61.2883C35.025 57.1605 24.9476 46.6084 21.1286 41.7933C17.9173 37.7444 16.2201 32.8658 16.2201 27.6845C16.2201 15.1235 26.439 4.9046 39 4.9046C51.561 4.9046 61.7799 15.1235 61.7799 27.6845C61.7799 32.866 60.0843 37.7431 56.8764 41.7883Z" fill="white"/>
<path d="M38.9999 10.9842C29.9561 10.9842 22.5981 18.3419 22.5981 27.3858C22.5981 36.4297 29.9558 43.7876 38.9999 43.7876C48.044 43.7876 55.4017 36.4299 55.4017 27.3858C55.4017 18.3422 48.0438 10.9842 38.9999 10.9842ZM38.9999 39.1994C32.486 39.1994 27.1864 33.8997 27.1864 27.3858C27.1864 20.8719 32.486 15.5725 38.9999 15.5725C45.5139 15.5725 50.8135 20.8719 50.8135 27.3858C50.8135 33.8997 45.5139 39.1994 38.9999 39.1994Z" fill="white"/>
<path d="M71.8274 10.4463L68.2751 13.3502C71.5874 17.4023 73.4117 22.5138 73.4117 27.7428C73.4117 32.9245 71.7161 37.8016 68.5082 41.8468L72.1033 44.6977C75.9609 39.833 77.9999 33.9702 77.9999 27.7428C77.9999 21.4583 75.8079 15.3155 71.8274 10.4463Z" fill="#F86600"/>
<path d="M6.17255 10.4463C2.19203 15.3155 0 21.4583 0 27.7428C0 33.9702 2.03901 39.833 5.89657 44.6974L9.49168 41.8465C6.28382 37.8013 4.58823 32.9245 4.58823 27.7428C4.58823 22.5138 6.41252 17.4023 9.72476 13.3502L6.17255 10.4463Z" fill="#F86600"/>
<path d="M52.7648 73.0956H25.2354V77.6839H52.7648V73.0956Z" fill="white"/>
</g>
<defs>
<clipPath id="clip0_1070_38430">
<rect width="78" height="78" fill="white"/>
</clipPath>
</defs>
</svg>
