<svg width="65" height="81" viewBox="0 0 65 81" fill="none" xmlns="http://www.w3.org/2000/svg">
<path d="M63.658 64.4603C63.4166 64.3058 61.5993 63.0504 59.7795 59.2528C56.4377 52.2789 55.7362 42.4548 55.7362 35.4415C55.7362 35.4109 55.7356 35.3807 55.7345 35.3503C55.698 26.0814 50.0693 18.0912 42.0144 14.5061V9.02327C42.0144 4.04778 37.9161 0 32.8785 0H32.1214C27.0839 0 22.9855 4.04778 22.9855 9.02327V14.5058C14.9038 18.1024 9.26373 26.1334 9.26373 35.4415C9.26373 42.4548 8.56228 52.2787 5.22044 59.2528C3.40086 63.0503 1.58354 64.3056 1.34191 64.4603C0.32439 64.9247 -0.177312 65.9973 0.0567727 67.0843C0.293104 68.1821 1.33373 68.9389 2.47014 68.9389H20.1103C20.2088 75.6057 25.727 81 32.5001 81C39.2731 81 44.7914 75.6057 44.8899 68.9389H62.53C63.6662 68.9389 64.707 68.1821 64.9434 67.0843C65.1771 65.9973 64.6756 64.9245 63.658 64.4603ZM27.799 9.02327C27.799 6.66905 29.7381 4.75385 32.1216 4.75385H32.8787C35.2622 4.75385 37.2013 6.66905 37.2013 9.02327V12.9652C35.6823 12.6556 34.1098 12.4927 32.4994 12.4927C30.8895 12.4927 29.3175 12.6555 27.7991 12.9647V9.02327H27.799ZM32.5001 76.2462C28.381 76.2462 25.0212 72.9845 24.9235 68.9391H40.0764C39.9789 72.9843 36.6191 76.2462 32.5001 76.2462ZM42.1908 64.1849C42.1903 64.1849 7.95485 64.1849 7.95485 64.1849C8.3712 63.5451 8.79492 62.8207 9.21608 62.002C12.4416 55.7304 14.0772 46.7941 14.0772 35.4415C14.0772 25.4087 22.3414 17.2465 32.4993 17.2465C42.6572 17.2465 50.9214 25.4087 50.9214 35.4494C50.9214 35.4786 50.9218 35.5077 50.923 35.5369C50.9321 46.8439 52.5675 55.7481 55.784 62.002C56.2052 62.8209 56.6291 63.5451 57.0453 64.1849H42.1908Z" fill="white"/>
</svg>
