<svg width="15" height="15" viewBox="0 0 15 15" fill="none" xmlns="http://www.w3.org/2000/svg">
<path d="M7.5 0C9.48912 0 11.3968 0.790176 12.8033 2.1967C14.2098 3.60322 15 5.51088 15 7.5C15 9.48912 14.2098 11.3968 12.8033 12.8033C11.3968 14.2098 9.48912 15 7.5 15C5.51088 15 3.60322 14.2098 2.1967 12.8033C0.790176 11.3968 0 9.48912 0 7.5C0 5.51088 0.790176 3.60322 2.1967 2.1967C3.60322 0.790176 5.51088 0 7.5 0ZM8.62492 4.60467C9.18202 4.60467 9.63413 4.21791 9.63413 3.64474C9.63413 3.07157 9.18095 2.68481 8.62492 2.68481C8.06782 2.68481 7.61785 3.07157 7.61785 3.64474C7.61785 4.21791 8.06782 4.60467 8.62492 4.60467ZM8.82098 10.6332C8.82098 10.5185 8.86062 10.2207 8.83812 10.0514L7.95747 11.0649C7.77534 11.2567 7.54714 11.3895 7.44 11.3542C7.3914 11.3363 7.35078 11.3017 7.32544 11.2565C7.30011 11.2113 7.29172 11.1586 7.3018 11.1078L8.76955 6.47097C8.88954 5.88279 8.55957 5.34605 7.85998 5.27748C7.12181 5.27748 6.03546 6.02636 5.37444 6.97664C5.37444 7.09021 5.35301 7.37304 5.37551 7.54232L6.25509 6.52775C6.43722 6.33812 6.64935 6.2042 6.75648 6.24063C6.80927 6.25957 6.85252 6.29845 6.87695 6.34893C6.90139 6.39941 6.90507 6.45745 6.88719 6.51061L5.43229 11.1249C5.26409 11.6649 5.58228 12.1941 6.35365 12.3141C7.48929 12.3141 8.15995 11.5835 8.82205 10.6332H8.82098Z" fill="#F86600"/>
</svg>
