<svg width="26" height="26" viewBox="0 0 26 26" fill="none" xmlns="http://www.w3.org/2000/svg">
<path d="M19.1447 9.38438L9.17629 20.2617H5.52004C5.26613 20.2617 5.06301 20.0078 5.11379 19.7539L7.55129 4.31641C7.60207 3.96094 7.90676 3.70703 8.26223 3.70703H14.4575C18.7232 3.85938 19.8911 6.04297 19.1294 9.39453L19.1447 9.38438Z" fill="#002C8A"/>
<path d="M19.3071 8.37891C20.8306 9.19141 21.1861 10.7148 20.6782 12.7461C20.0181 15.7422 18.0376 17.0117 15.1431 17.0625L14.3306 17.1133C14.0259 17.1133 13.8228 17.3164 13.772 17.6211L13.1118 21.6328C13.0611 21.9883 12.7564 22.2422 12.4009 22.2422H9.35402C9.10012 22.2422 8.89699 21.9883 8.94777 21.7344L10.065 14.4727C10.1157 14.2188 19.3071 8.37891 19.3071 8.37891Z" fill="#009BE1"/>
<path d="M10.0039 14.8281L11.0195 8.37891C11.0528 8.22617 11.1356 8.08867 11.2549 7.98769C11.3743 7.88672 11.5235 7.82789 11.6797 7.82031H16.5547C17.7227 7.82031 18.5859 8.02344 19.2969 8.37891C19.043 10.6133 17.9766 14.2188 12.7969 14.3203H10.5625C10.3086 14.3203 10.0547 14.5234 10.0039 14.8281Z" fill="#001F6B"/>
</svg>
