<svg width="19" height="19" viewBox="0 0 19 19" fill="none" xmlns="http://www.w3.org/2000/svg">
<g clip-path="url(#clip0_1153_299)">
<path d="M9.49994 0C6.41875 0 4.59794 0.896971 3.1666 2.09872V0.791654C3.1666 0.354654 2.81194 0 2.37494 0C1.93794 0 1.58325 0.354654 1.58325 0.791654V3.95831C1.58325 4.39531 1.93791 4.74996 2.37491 4.74996H5.54156C5.97856 4.74996 6.33322 4.39531 6.33322 3.95831C6.33322 3.52131 5.97856 3.16665 5.54156 3.16665H4.36119C5.55659 2.21506 7.01959 1.58331 9.49991 1.58331C13.8652 1.58331 17.4166 5.13471 17.4166 9.49996C17.4166 13.8652 13.8652 17.4166 9.49991 17.4166C9.13731 17.4166 8.77475 17.3921 8.42166 17.3438C7.99256 17.2828 7.58881 17.5876 7.53025 18.0214C7.47088 18.4545 7.7741 18.8535 8.20713 18.9128C8.63147 18.9706 9.0661 18.9999 9.49991 18.9999C14.7384 18.9999 18.9999 14.7384 18.9999 9.49993C18.9999 4.26146 14.7384 0 9.49994 0Z" fill="#2E266F"/>
<path d="M6.23428 16.7143C5.71575 16.4792 5.22094 16.1863 4.76338 15.8443C4.41266 15.583 3.9171 15.6543 3.65503 16.005C3.393 16.3549 3.46503 16.8505 3.81494 17.1125C4.36434 17.5226 4.95809 17.8741 5.58034 18.1559C5.68644 18.2042 5.79724 18.2272 5.90649 18.2272C6.20812 18.2272 6.49627 18.0538 6.62849 17.7625C6.80903 17.3635 6.63246 16.8948 6.23428 16.7143Z" fill="#2E266F"/>
<path d="M2.28567 12.7637C2.10517 12.3655 1.63492 12.1898 1.23751 12.3687C0.839291 12.5492 0.662761 13.0187 0.843261 13.4169C1.12429 14.0383 1.47579 14.6329 1.88667 15.1823C2.04182 15.3905 2.28014 15.5005 2.52157 15.5005C2.68622 15.5005 2.85247 15.449 2.99497 15.3422C3.34488 15.0809 3.41694 14.5845 3.15488 14.2346C2.81292 13.7763 2.52001 13.2815 2.28567 12.7637Z" fill="#2E266F"/>
<path d="M0.978707 11.4699C1.41174 11.4106 1.71496 11.0116 1.65558 10.5785C1.6073 10.2254 1.58355 9.86205 1.58355 9.50027C1.58355 9.06249 1.2289 8.70862 0.791899 8.70862C0.354119 8.70862 0.000244141 9.06249 0.000244141 9.50027C0.000244141 9.93412 0.0295234 10.3687 0.0873399 10.7931C0.141186 11.1897 0.480811 11.4771 0.870311 11.4771C0.906678 11.4771 0.942303 11.4747 0.978707 11.4699Z" fill="#2E266F"/>
<path d="M9.49982 15.0417C12.5557 15.0417 15.0415 12.5558 15.0415 9.50003C15.0415 6.44422 12.5556 3.95837 9.49982 3.95837C6.44401 3.95837 3.95813 6.44418 3.95813 9.50003C3.95813 12.5559 6.44397 15.0417 9.49982 15.0417ZM7.35675 10.5237L8.70813 9.17228V7.91668C8.70813 7.47968 9.06278 7.12503 9.49978 7.12503C9.93678 7.12503 10.2914 7.47968 10.2914 7.91668V9.50003C10.2914 9.60293 10.2701 9.70587 10.2305 9.80243C10.1901 9.89981 10.1323 9.9869 10.0595 10.0597L8.47612 11.6431C8.32175 11.7974 8.11909 11.875 7.9164 11.875C7.71375 11.875 7.51106 11.7974 7.35668 11.6431C7.04723 11.3335 7.04723 10.8332 7.35675 10.5237Z" fill="#51C800"/>
</g>
<defs>
<clipPath id="clip0_1153_299">
<rect width="19" height="19" fill="white"/>
</clipPath>
</defs>
</svg>
