<svg width="31" height="28" viewBox="0 0 31 28" fill="none" xmlns="http://www.w3.org/2000/svg">
<path d="M25.8176 6.42178C25.8176 6.42289 25.8176 6.4239 25.8176 6.42482C25.8176 7.19606 25.1901 7.82359 24.4188 7.82359C23.6476 7.82359 23.02 7.19606 23.02 6.42482C23.02 5.90154 22.595 5.47644 22.0718 5.47644C21.5474 5.47644 21.1234 5.90154 21.1234 6.42482C21.1234 7.19606 20.4959 7.82359 19.7246 7.82359C18.9534 7.82359 18.3258 7.19606 18.3258 6.42482C18.3258 5.90154 17.9008 5.47644 17.3775 5.47644C16.8542 5.47644 16.4292 5.90154 16.4292 6.42482C16.4292 7.19606 15.8017 7.82359 15.0304 7.82359C14.2592 7.82359 13.6316 7.19606 13.6316 6.42482C13.6316 5.90154 13.2077 5.47644 12.6833 5.47644C12.16 5.47644 11.7349 5.90154 11.7349 6.42482C11.7349 7.19606 11.1085 7.82359 10.3372 7.82359C9.57206 7.82359 8.94554 7.20315 8.93846 6.43888C8.93846 6.42785 8.93846 6.41763 8.93745 6.40751C8.92834 5.8903 8.50627 5.47634 7.99008 5.47634C7.98715 5.47634 7.98411 5.47634 7.98097 5.47634C7.46074 5.4814 7.04181 5.90447 7.04181 6.42471V6.43787C7.03473 7.20204 6.40811 7.82349 5.64304 7.82349C4.87179 7.82349 4.24426 7.19596 4.24426 6.42471V4.80631L15.0306 1.92981L25.818 4.80631C25.8176 5.47745 25.8176 6.37633 25.8176 6.42178Z" fill="#F86600"/>
<path d="M29.1121 19.7485C29.6364 19.7485 30.0604 20.1727 30.0604 20.6968C30.0604 21.2201 29.6363 21.6452 29.1121 21.6452H26.7548V26.0076H27.3712C27.8945 26.0076 28.3185 26.4316 28.3185 26.9549C28.3185 27.4793 27.8945 27.9033 27.3712 27.9033H24.2417C23.7174 27.9033 23.2933 27.4793 23.2933 26.9549C23.2933 26.4316 23.7174 26.0076 24.2417 26.0076H24.858V21.6452H22.4998C21.9765 21.6452 21.5514 21.2201 21.5514 20.6968C21.5514 20.1726 21.9765 19.7485 22.4998 19.7485H29.1121Z" fill="white"/>
<path d="M27.7133 4.07873L27.7104 6.42487H27.7133C27.7133 8.24267 26.2356 9.72049 24.4188 9.72049C23.5008 9.72049 22.6699 9.34388 22.0718 8.73568C21.4736 9.34398 20.6427 9.72049 19.7246 9.72049C18.8066 9.72049 17.9757 9.34388 17.3774 8.73568C16.9939 9.12536 16.5152 9.41888 15.9787 9.58082V16.6192H23.6366C24.1598 16.6192 24.5849 17.0433 24.5849 17.5676C24.5849 18.0909 24.1598 18.516 23.6366 18.516H20.8997L16.3713 23.0442L19.6132 26.285C19.9825 26.6555 19.9825 27.2558 19.6132 27.6261C19.428 27.8113 19.1851 27.9034 18.9422 27.9034C18.6992 27.9034 18.4573 27.8113 18.2721 27.6261L15.0302 24.3853L11.7893 27.6261C11.6042 27.8113 11.3612 27.9034 11.1193 27.9034C10.8764 27.9034 10.6334 27.8113 10.4482 27.6261C10.0779 27.2558 10.0779 26.6555 10.4482 26.285L13.6892 23.0442L9.16187 18.5159H6.42505C5.90076 18.5159 5.47678 18.0908 5.47678 17.5675C5.47678 17.0432 5.90076 16.6191 6.42505 16.6191H14.0819V9.58072C13.5465 9.41877 13.0667 9.12525 12.6831 8.73558C12.085 9.34388 11.254 9.72039 10.337 9.72039C9.41997 9.72039 8.58799 9.34185 7.98972 8.73356C7.39053 9.34185 6.55855 9.72039 5.64267 9.72039C3.82588 9.72039 2.34705 8.24257 2.34705 6.42477V4.07863C2.34705 3.64847 2.63652 3.27297 3.0516 3.16153L14.7862 0.0320044C14.9461 -0.0105054 15.1152 -0.0105054 15.2751 0.0320044L27.0098 3.16153C27.4249 3.27307 27.7133 3.64858 27.7133 4.07873ZM25.8176 6.42487C25.8176 6.42386 25.8176 6.42285 25.8176 6.42183C25.8176 6.37639 25.8176 5.47751 25.8176 4.80646L15.0302 1.92997L4.24389 4.80636V6.42477C4.24389 7.19602 4.87142 7.82354 5.64267 7.82354C6.40774 7.82354 7.03436 7.20199 7.04144 6.43793V6.42477C7.04144 5.90453 7.46047 5.48146 7.98061 5.4764C7.98364 5.4764 7.98668 5.4764 7.98972 5.4764C8.50601 5.4764 8.92807 5.89036 8.93708 6.40756C8.93809 6.41768 8.93809 6.42781 8.93809 6.43894C8.94517 7.2032 9.57179 7.82365 10.3369 7.82365C11.1081 7.82365 11.7345 7.19612 11.7345 6.42487C11.7345 5.9016 12.1596 5.4765 12.6829 5.4765C13.2073 5.4765 13.6313 5.9016 13.6313 6.42487C13.6313 7.19612 14.2588 7.82365 15.03 7.82365C15.8013 7.82365 16.4288 7.19612 16.4288 6.42487C16.4288 5.9016 16.8538 5.4765 17.3771 5.4765C17.9005 5.4765 18.3255 5.9016 18.3255 6.42487C18.3255 7.19612 18.953 7.82365 19.7242 7.82365C20.4955 7.82365 21.123 7.19612 21.123 6.42487C21.123 5.9016 21.547 5.4765 22.0714 5.4765C22.5947 5.4765 23.0197 5.9016 23.0197 6.42487C23.0197 7.19612 23.6472 7.82365 24.4184 7.82365C25.1901 7.82365 25.8176 7.19612 25.8176 6.42487ZM15.0302 21.7031L18.2175 18.5159H11.844L15.0302 21.7031Z" fill="white"/>
<path d="M7.56168 19.7485C8.08496 19.7485 8.51006 20.1727 8.51006 20.6968C8.51006 21.2201 8.08496 21.6452 7.56168 21.6452H5.2034V26.0076H5.81979C6.34307 26.0076 6.76817 26.4316 6.76817 26.9549C6.76817 27.4793 6.34307 27.9033 5.81979 27.9033H2.69026C2.16699 27.9033 1.74189 27.4793 1.74189 26.9549C1.74189 26.4316 2.16699 26.0076 2.69026 26.0076H3.30665V21.6452H0.948373C0.425098 21.6452 0 21.2201 0 20.6968C0 20.1726 0.425098 19.7485 0.948373 19.7485H7.56168Z" fill="white"/>
</svg>
